<?xml version="1.0" encoding="UTF-8" standalone="no"?>
<!DOCTYPE svg PUBLIC "-//W3C//DTD SVG 1.1//EN" "http://www.w3.org/Graphics/SVG/1.1/DTD/svg11.dtd">
<svg width="100%" height="100%" viewBox="0 0 800 600" version="1.1" xmlns="http://www.w3.org/2000/svg" xmlns:xlink="http://www.w3.org/1999/xlink" xml:space="preserve" xmlns:serif="http://www.serif.com/" style="fill-rule:evenodd;clip-rule:evenodd;stroke-linecap:round;stroke-linejoin:round;stroke-miterlimit:1.5;">
    <g id="Code-Graph" serif:id="Code Graph" transform="matrix(1.72885,0,0,2.26839,-33.4282,-216.413)">
        <g transform="matrix(0.827315,0.826664,-1.34644,1.3475,240.244,-95.5287)">
            <rect x="35" y="110" width="9.551" height="84" style="fill:rgb(209,213,219);stroke:rgb(209,213,219);stroke-width:1.13px;"/>
        </g>
        <g transform="matrix(0.827315,0.826664,-2.38326,2.38514,432.508,-216.843)">
            <rect x="35" y="110" width="9.551" height="84" style="fill:rgb(209,213,219);stroke:rgb(209,213,219);stroke-width:0.73px;"/>
        </g>
        <g transform="matrix(0.707184,0.70703,-0.652601,0.652743,319.839,-7.72518)">
            <rect x="268.028" y="33" width="9.972" height="252" style="fill:rgb(209,213,219);stroke:rgb(209,213,219);stroke-width:0.46px;"/>
        </g>
        <g transform="matrix(0.707184,0.70703,-0.992043,0.992259,327.386,-107.36)">
            <rect x="268.028" y="33" width="9.972" height="252" style="fill:rgb(209,213,219);stroke:rgb(209,213,219);stroke-width:0.36px;"/>
        </g>
        <g transform="matrix(0.707184,0.70703,-1.1078,1.10804,276.775,-142.232)">
            <rect x="268.028" y="33" width="9.972" height="252" style="fill:rgb(209,213,219);stroke:rgb(209,213,219);stroke-width:0.34px;"/>
        </g>
        <g transform="matrix(0.707184,0.70703,-0.884755,0.884947,83.6612,-115.048)">
            <rect x="268.028" y="33" width="9.972" height="252" style="fill:rgb(209,213,219);stroke:rgb(209,213,219);stroke-width:0.39px;"/>
        </g>
        <g transform="matrix(0.707184,0.70703,-1.01211,1.01233,107.343,-138.735)">
            <rect x="268.028" y="33" width="9.972" height="252" style="fill:rgb(209,213,219);stroke:rgb(209,213,219);stroke-width:0.36px;"/>
        </g>
        <g transform="matrix(0.707184,0.70703,-1.23446,1.23473,227.496,-177.899)">
            <rect x="268.028" y="33" width="9.972" height="252" style="fill:rgb(209,213,219);stroke:rgb(209,213,219);stroke-width:0.31px;"/>
        </g>
        <g transform="matrix(-0.0912311,-1.05734,0.996298,-0.0859638,24.8469,290.73)">
            <path d="M71.001,218.528L71.001,210.764L114.699,210.764L114.699,203.555L122.689,214.646L114.699,225.737L114.699,218.528L71.001,218.528Z" style="fill:rgb(209,213,219);stroke:rgb(183,186,192);stroke-width:0.93px;"/>
        </g>
        <g transform="matrix(1.24979,-0.0501335,0.0400813,0.999196,50.6275,84.9305)">
            <path d="M71.001,218.528L71.001,210.764L111.068,210.764L111.068,203.555L122.689,214.646L111.068,225.737L111.068,218.528L71.001,218.528Z" style="fill:rgb(209,213,219);stroke:rgb(183,186,192);stroke-width:0.91px;"/>
        </g>
        <g transform="matrix(0.141903,-1.35213,0.994538,0.104374,93.7561,354.099)">
            <path d="M71.001,218.528L71.001,210.764L116.443,210.764L116.443,203.555L122.689,214.646L116.443,225.737L116.443,218.528L71.001,218.528Z" style="fill:rgb(209,213,219);stroke:rgb(183,186,192);stroke-width:0.82px;"/>
        </g>
        <g transform="matrix(1.1193,-0.161106,0.142466,0.9898,-46.2661,24.1467)">
            <path d="M71.001,218.528L71.001,210.764L110.006,210.764L110.006,203.555L122.689,214.646L110.006,225.737L110.006,218.528L71.001,218.528Z" style="fill:rgb(209,213,219);stroke:rgb(183,186,192);stroke-width:0.98px;"/>
        </g>
        <g transform="matrix(1.35633,-0.0936337,0.0688709,0.997626,222.817,-13.7919)">
            <path d="M71.001,218.528L71.001,210.764L112.022,210.764L112.022,203.555L122.689,214.646L112.022,225.737L112.022,218.528L71.001,218.528Z" style="fill:rgb(209,213,219);stroke:rgb(183,186,192);stroke-width:0.88px;"/>
        </g>
        <g transform="matrix(1,0,0,1,201.921,-33.6276)">
            <ellipse cx="219.5" cy="220.5" rx="13.5" ry="12.5" style="fill:rgb(209,213,219);stroke:rgb(183,186,192);stroke-width:0.99px;"/>
        </g>
        <g transform="matrix(1,0,0,1,15,-20)">
            <ellipse cx="219.5" cy="220.5" rx="13.5" ry="12.5" style="fill:rgb(209,213,219);stroke:rgb(183,186,192);stroke-width:0.99px;"/>
        </g>
        <g transform="matrix(1,0,0,1,-154.521,-73.4552)">
            <ellipse cx="219.5" cy="220.5" rx="13.5" ry="12.5" style="fill:rgb(209,213,219);stroke:rgb(183,186,192);stroke-width:0.99px;"/>
        </g>
        <g transform="matrix(1,0,0,1,-162.092,5.04921)">
            <ellipse cx="219.5" cy="220.5" rx="13.5" ry="12.5" style="fill:rgb(209,213,219);stroke:rgb(183,186,192);stroke-width:0.99px;"/>
        </g>
        <g transform="matrix(1,0,0,1,-81.0809,-76.5016)">
            <ellipse cx="219.5" cy="220.5" rx="13.5" ry="12.5" style="fill:rgb(209,213,219);stroke:rgb(183,186,192);stroke-width:0.99px;"/>
        </g>
        <g transform="matrix(1,0,0,1,6.41709,-92.5978)">
            <ellipse cx="219.5" cy="220.5" rx="13.5" ry="12.5" style="fill:rgb(209,213,219);stroke:rgb(183,186,192);stroke-width:0.99px;"/>
        </g>
        <g transform="matrix(1,0,0,1,-82.4871,-2.21344)">
            <ellipse cx="219.5" cy="220.5" rx="13.5" ry="12.5" style="fill:rgb(209,213,219);stroke:rgb(183,186,192);stroke-width:0.99px;"/>
        </g>
        <g transform="matrix(1,0,0,1,-79.3118,75.6655)">
            <ellipse cx="219.5" cy="220.5" rx="13.5" ry="12.5" style="fill:rgb(209,213,219);stroke:rgb(183,186,192);stroke-width:0.99px;"/>
        </g>
        <g transform="matrix(1,0,0,1,9.22951,71.8479)">
            <ellipse cx="219.5" cy="220.5" rx="13.5" ry="12.5" style="fill:rgb(209,213,219);stroke:rgb(183,186,192);stroke-width:0.99px;"/>
        </g>
        <g transform="matrix(1,0,0,1,106.674,-26.2169)">
            <ellipse cx="219.5" cy="220.5" rx="13.5" ry="12.5" style="fill:rgb(209,213,219);stroke:rgb(183,186,192);stroke-width:0.99px;"/>
        </g>
        <g transform="matrix(1,0,0,1,97.5225,66.8271)">
            <ellipse cx="219.5" cy="220.5" rx="13.5" ry="12.5" style="fill:rgb(209,213,219);stroke:rgb(183,186,192);stroke-width:0.99px;"/>
        </g>
        <g transform="matrix(1,0,0,1,193.392,64.2541)">
            <ellipse cx="219.5" cy="220.5" rx="13.5" ry="12.5" style="fill:rgb(209,213,219);stroke:rgb(183,186,192);stroke-width:0.99px;"/>
        </g>
    </g>
</svg>
